<?xml version="1.0" standalone="no"?>
<!DOCTYPE svg PUBLIC "-//W3C//DTD SVG 20010904//EN"
 "http://www.w3.org/TR/2001/REC-SVG-20010904/DTD/svg10.dtd">
<svg version="1.0" xmlns="http://www.w3.org/2000/svg"
 width="960.000000pt" height="959.000000pt" viewBox="0 0 960.000000 959.000000"
 preserveAspectRatio="xMidYMid meet">

<g transform="translate(0.000000,959.000000) scale(0.100000,-0.100000)"
fill="#000000" stroke="none">
<path d="M4450 9584 c-373 -33 -688 -90 -1009 -184 -1075 -315 -2016 -1008
-2642 -1945 -387 -580 -643 -1241 -750 -1936 -66 -435 -66 -1013 0 -1448 189
-1228 829 -2310 1826 -3086 127 -99 405 -283 560 -371 599 -339 1269 -543
1980 -604 155 -13 615 -13 770 0 1055 90 2008 494 2795 1186 128 112 388 377
491 499 578 689 945 1497 1080 2376 66 435 66 1013 0 1448 -206 1342 -965
2528 -2096 3276 -645 427 -1318 672 -2115 771 -98 12 -233 17 -490 19 -195 1
-375 1 -400 -1z m671 -881 c52 -134 153 -205 354 -247 11 -2 4 -4 -15 -5 -57
-2 -167 -46 -224 -90 -29 -22 -66 -61 -81 -87 -29 -49 -75 -184 -75 -221 0
-12 -4 -25 -10 -28 -6 -4 -10 6 -10 22 0 44 -36 160 -66 211 -61 104 -179 177
-311 191 l-58 6 70 14 c132 26 227 81 285 166 31 45 79 194 81 249 0 20 7 6
18 -44 10 -41 29 -103 42 -137z m-859 157 c27 -27 30 -36 25 -73 -7 -52 -36
-77 -89 -77 -53 0 -88 34 -88 88 0 90 88 125 152 62z m1780 -7 c10 -9 18 -26
18 -39 0 -52 -67 -73 -95 -30 -15 22 -15 27 0 55 18 35 48 41 77 14z m-2583
-229 c22 -22 55 -40 94 -53 63 -19 64 -24 6 -35 -75 -13 -134 -74 -164 -170
l-13 -41 -1 33 c-3 83 -75 158 -177 182 -43 10 -52 15 -34 18 44 6 94 24 124
45 39 27 86 104 87 141 0 27 3 23 22 -27 13 -32 38 -74 56 -93z m3140 -13 c69
-49 29 -161 -58 -163 -62 -2 -106 72 -81 133 24 57 85 70 139 30z m-3994 -541
c26 -27 40 -35 110 -60 l30 -11 -53 -18 c-63 -22 -104 -65 -128 -135 l-16 -48
-18 53 c-22 65 -84 125 -138 135 -60 11 -69 20 -26 28 80 16 134 61 161 137
l17 47 17 -50 c9 -27 29 -62 44 -78z m4465 76 c34 -38 33 -101 -3 -132 -39
-33 -81 -31 -118 5 -60 60 -24 151 59 151 28 0 45 -7 62 -24z m-2978 -280 c30
-72 81 -138 129 -170 58 -39 163 -77 234 -84 l60 -7 -104 -22 c-110 -24 -201
-68 -249 -122 -40 -45 -89 -162 -108 -261 l-18 -95 -17 100 c-39 231 -136 332
-363 380 l-89 19 69 13 c69 14 211 77 249 110 65 56 114 163 136 296 l13 77
18 -92 c11 -50 29 -114 40 -142z m1998 76 c0 -45 51 -176 90 -231 56 -80 147
-134 270 -161 l75 -17 -54 -7 c-116 -15 -242 -90 -299 -177 -36 -53 -70 -152
-79 -226 -6 -55 -23 -73 -23 -25 0 49 -36 168 -69 228 -59 108 -188 186 -335
201 l-61 7 85 18 c150 33 249 95 308 193 34 57 72 172 72 219 0 24 3 27 10 16
5 -8 10 -25 10 -38z m-4240 -369 c57 -39 67 -92 26 -136 -49 -53 -111 -44
-148 20 -23 38 -16 72 19 108 30 29 68 32 103 8z m6066 -81 c51 -41 57 -96 15
-141 -40 -42 -90 -43 -132 -2 -38 39 -39 87 -3 130 20 24 34 31 62 31 21 0 47
-8 58 -18z m-4916 -180 c18 -14 20 -22 11 -43 -13 -36 -37 -43 -61 -19 -24 24
-25 43 -4 64 20 20 27 20 54 -2z m3801 -56 c15 -32 -4 -66 -36 -66 -33 0 -45
42 -20 70 24 27 43 25 56 -4z m-1671 -4 c26 -21 21 -55 -10 -72 -42 -22 -74
23 -46 65 20 30 27 31 56 7z m-2445 -282 c157 -23 324 -98 460 -207 80 -65
184 -196 234 -296 68 -134 83 -199 88 -382 4 -148 2 -168 -21 -260 -46 -175
-118 -303 -247 -436 -290 -297 -756 -360 -1125 -154 -203 114 -374 337 -435
570 -32 123 -37 313 -10 439 35 172 135 351 262 471 218 205 502 296 794 255z
m5626 -47 c22 -57 -39 -106 -82 -67 -23 21 -24 42 -3 72 23 33 71 30 85 -5z
m-2785 -31 c40 -32 47 -59 27 -100 -36 -75 -119 -77 -150 -4 -17 40 -12 69 17
100 25 27 76 29 106 4z m-4166 -12 c16 -16 18 -24 9 -49 -18 -50 -82 -48 -95
3 -14 57 44 88 86 46z m6537 -99 c93 -23 175 -61 277 -130 143 -95 242 -208
316 -362 65 -135 65 -134 86 -132 19 2 346 139 508 212 38 17 70 30 71 29 18
-20 182 -594 173 -603 -2 -2 -62 -29 -133 -60 -109 -48 -253 -111 -558 -247
l-47 -22 2 -210 c3 -243 -7 -227 112 -172 39 18 112 50 161 71 50 21 188 80
308 132 120 52 221 92 224 89 11 -10 32 -249 39 -441 l7 -191 -29 -13 c-120
-56 -585 -264 -699 -313 -77 -33 -171 -75 -210 -94 -38 -18 -232 -106 -430
-195 -666 -299 -717 -323 -722 -335 -2 -7 29 -59 69 -116 75 -106 87 -128 108
-210 7 -26 17 -45 22 -42 5 3 6 -5 2 -20 -8 -33 3 -33 28 -1 11 14 24 23 29
20 5 -4 9 -1 9 5 0 6 5 8 11 5 6 -5 5 -11 -5 -18 -11 -8 -13 -17 -6 -27 7 -12
13 -11 35 10 19 18 28 21 37 12 9 -9 8 -12 -5 -12 -9 0 -17 -4 -17 -9 0 -5 -9
-13 -20 -16 -11 -3 -20 -14 -21 -23 0 -9 -5 -2 -10 16 -11 38 -18 39 -42 11
-23 -27 -18 -53 11 -57 13 -2 26 -10 29 -18 3 -8 11 -14 19 -14 12 0 12 -6 -1
-37 -20 -46 -23 -49 -37 -35 -8 8 -8 15 2 27 11 13 9 15 -13 15 -21 0 -25 -4
-20 -17 4 -10 13 -24 21 -32 13 -13 12 -16 -4 -21 -14 -5 -15 -8 -4 -15 8 -5
17 -3 24 6 13 17 42 23 50 10 3 -5 -8 -14 -24 -20 -17 -5 -30 -15 -30 -20 0
-6 -7 -11 -15 -11 -8 0 -15 -4 -15 -10 0 -5 7 -10 15 -10 8 0 15 4 15 8 0 5
16 16 37 26 28 14 38 14 44 4 4 -7 3 -18 -3 -26 -9 -10 -6 -17 11 -28 15 -11
20 -22 16 -35 -6 -18 -5 -19 13 -8 11 7 18 18 15 26 -3 7 2 15 10 19 9 3 19
19 22 35 5 20 13 29 26 29 23 0 25 -16 2 -28 -10 -6 -16 -21 -15 -42 0 -24 -4
-34 -19 -37 -15 -4 -17 -11 -12 -31 5 -21 3 -24 -10 -19 -11 4 -20 -1 -27 -13
-13 -24 -13 -50 0 -50 6 0 10 9 10 19 0 12 12 25 30 33 22 10 28 17 24 32 -4
11 -2 16 4 12 19 -11 62 12 62 34 0 15 -7 20 -25 20 -30 0 -33 15 -5 30 16 8
20 8 20 -4 0 -7 7 -16 15 -20 8 -3 15 -4 15 -2 0 3 3 11 6 20 3 9 1 16 -5 16
-7 0 -22 11 -35 25 -13 14 -31 25 -40 25 -22 0 -20 17 3 23 21 5 41 -9 41 -31
0 -9 7 -13 20 -9 11 3 18 2 15 -3 -3 -4 2 -13 11 -20 8 -7 13 -19 10 -27 -3
-8 -1 -11 4 -8 6 3 10 -1 10 -9 0 -9 -7 -16 -16 -16 -19 0 -15 -31 5 -38 10
-3 12 0 8 11 -4 11 -2 14 9 10 17 -6 18 -20 2 -25 -13 -5 -4 -38 11 -38 15 0
31 34 34 71 1 18 9 35 16 37 9 3 11 0 6 -9 -5 -7 8 -3 28 10 34 21 64 21 51 0
-3 -5 -10 -7 -15 -3 -14 8 -51 -27 -45 -43 3 -7 -3 -18 -12 -25 -18 -14 -29
-64 -12 -53 6 3 10 -3 10 -14 0 -25 -15 -27 -28 -5 -5 9 -14 14 -21 10 -16
-10 -14 -61 4 -76 20 -16 32 -5 15 14 -19 24 -7 42 14 21 14 -14 20 -15 26 -5
4 7 13 9 19 6 7 -5 4 -14 -9 -28 -20 -22 -18 -38 6 -38 8 0 14 -9 14 -21 0
-16 4 -19 20 -14 14 4 22 1 26 -10 9 -22 -1 -29 -24 -16 -15 8 -21 8 -24 -1
-2 -6 -10 -8 -17 -4 -8 5 -9 12 -2 19 6 8 1 18 -15 30 -25 18 -33 10 -12 -11
6 -6 8 -15 4 -19 -4 -5 -16 3 -27 16 l-19 23 0 -28 0 -27 -25 23 c-17 16 -25
19 -25 9 0 -14 52 -69 65 -69 3 0 3 9 0 20 -8 25 0 25 32 0 14 -11 29 -17 34
-14 5 3 19 -2 31 -12 17 -12 18 -15 5 -10 -14 5 -17 2 -13 -12 5 -16 1 -18
-28 -16 -21 2 -39 -3 -47 -12 -16 -19 -6 -28 18 -16 19 10 43 6 43 -8 0 -10
-56 -21 -75 -14 -8 4 -15 17 -15 30 0 19 -5 24 -27 24 -25 0 -25 -1 -10 -18
10 -10 17 -23 17 -29 0 -6 7 -16 15 -23 8 -7 15 -16 15 -21 0 -5 -7 -6 -15 -3
-8 4 -15 1 -15 -5 0 -6 -7 -11 -16 -11 -13 0 -14 -3 -4 -15 10 -12 9 -16 -4
-20 -55 -17 -53 -15 -33 -26 13 -8 22 -7 33 1 11 10 14 9 14 -4 0 -9 -4 -16
-8 -16 -5 0 -14 -11 -20 -25 -6 -14 -18 -25 -26 -25 -21 0 -29 -17 -18 -36 8
-15 11 -14 25 6 8 12 20 19 26 15 6 -3 11 1 11 9 0 19 54 79 63 70 12 -13 7
-24 -8 -18 -11 5 -15 -1 -15 -21 0 -23 2 -26 15 -15 12 10 15 10 15 -4 0 -9
-7 -16 -17 -16 -9 0 -31 -11 -49 -25 -18 -14 -43 -25 -56 -25 -16 0 -19 -3
-10 -8 16 -11 5 -42 -15 -42 -11 0 -14 8 -11 30 5 34 -16 43 -25 10 -6 -23
-27 -27 -27 -5 0 8 -4 15 -8 15 -14 0 -35 -47 -26 -61 5 -9 9 -8 15 7 6 18 8
17 17 -6 7 -19 6 -26 -4 -28 -16 -4 -19 -32 -5 -32 13 0 23 17 30 53 6 29 7
29 24 12 13 -12 15 -21 8 -28 -6 -6 -11 -21 -11 -33 0 -33 -10 -54 -27 -54
-10 0 -12 6 -8 20 4 11 2 20 -4 20 -6 0 -11 -9 -11 -20 0 -11 -6 -20 -12 -20
-10 0 -9 -3 1 -9 11 -7 11 -13 -3 -32 -22 -32 -20 -42 4 -27 11 7 20 17 20 22
0 5 16 24 36 42 19 19 33 38 30 43 -10 16 30 107 50 115 18 7 13 -62 -5 -73
-9 -6 -10 -10 -2 -15 6 -4 9 -12 5 -17 -3 -6 -12 -3 -20 8 -12 16 -13 16 -14
2 0 -9 7 -22 15 -29 13 -11 18 -10 30 6 8 10 15 24 15 31 0 18 41 83 51 83 5
0 9 -11 9 -25 0 -15 -6 -25 -15 -25 -14 0 -38 -33 -30 -42 3 -2 -11 -20 -30
-38 -26 -26 -35 -30 -35 -17 0 9 -4 17 -10 17 -5 0 -10 -16 -10 -36 0 -23 4
-33 11 -28 6 3 15 1 20 -7 6 -11 12 -9 29 6 14 13 17 22 10 29 -15 15 -12 26
6 26 8 0 12 -4 9 -10 -3 -6 -1 -10 6 -10 8 0 8 -4 -1 -15 -14 -17 -8 -31 9
-20 6 3 12 21 12 38 1 18 3 24 6 14 2 -9 9 -15 14 -12 16 11 9 -19 -11 -44
-15 -18 -23 -21 -33 -12 -22 18 -27 1 -7 -21 12 -13 25 -18 37 -14 17 6 17 5
-1 -8 -14 -12 -22 -12 -37 -3 -10 6 -19 17 -19 23 0 15 -38 25 -46 13 -3 -5 0
-9 5 -9 19 0 12 -27 -16 -59 -28 -32 -53 -41 -53 -18 0 7 14 18 30 24 35 13
38 35 11 68 -17 22 -20 23 -40 9 -24 -18 -28 -34 -6 -34 8 0 15 7 15 15 0 25
17 17 23 -11 4 -24 2 -25 -37 -24 -70 3 -86 0 -86 -14 0 -9 11 -12 35 -10 19
1 35 -1 36 -4 5 -41 4 -52 -3 -52 -17 0 -23 5 -20 18 2 7 -3 12 -10 11 -7 -1
-21 1 -31 6 -10 4 -20 5 -23 2 -10 -10 7 -27 26 -27 17 0 17 -2 4 -29 -24 -47
-39 -55 -69 -35 -26 17 -27 16 -58 -15 -37 -35 -47 -38 -47 -16 0 18 -17 20
-22 3 -7 -19 18 -39 38 -31 15 5 16 2 11 -25 -6 -27 -4 -32 13 -32 11 0 20 -6
20 -14 0 -8 -7 -13 -16 -12 -9 0 -19 -5 -22 -13 -3 -8 0 -11 6 -7 6 3 13 2 17
-4 4 -6 -4 -10 -18 -10 -14 0 -28 -7 -31 -17 -5 -12 -9 -14 -18 -5 -16 16 -71
16 -65 0 2 -7 15 -12 29 -10 22 3 29 -3 44 -38 l19 -41 48 5 c41 4 47 3 47
-14 0 -28 -31 -42 -51 -24 -9 8 -25 15 -35 16 -51 1 -115 -6 -120 -14 -3 -4 2
-8 10 -8 13 0 14 -4 4 -25 -7 -15 -17 -24 -25 -21 -7 3 -13 1 -13 -4 0 -6 6
-10 13 -10 8 0 7 -4 -3 -10 -25 -16 -37 -11 -35 15 2 17 -2 25 -12 25 -10 0
-12 -6 -8 -20 3 -11 2 -20 -3 -20 -13 0 9 -48 25 -54 7 -3 10 1 6 10 -4 10 2
17 15 21 12 3 24 14 27 24 4 10 10 19 15 19 5 0 12 9 15 21 4 12 12 18 21 15
7 -3 16 -1 19 4 4 6 13 10 21 10 11 0 13 -6 9 -20 -7 -22 5 -26 22 -9 25 25
33 2 9 -24 -14 -15 -28 -23 -31 -17 -3 5 -12 7 -20 3 -9 -3 -22 0 -30 7 -12
10 -16 9 -22 -6 -3 -11 -17 -34 -31 -51 -15 -20 -24 -46 -24 -67 0 -33 -3 -36
-36 -42 -24 -5 -37 -3 -40 5 -3 9 -9 7 -23 -5 -14 -12 -16 -21 -9 -35 8 -14 6
-19 -10 -24 -18 -6 -29 -25 -14 -25 17 0 45 24 40 35 -6 17 19 40 28 26 4 -6
13 -8 21 -4 8 3 15 0 15 -6 0 -6 -9 -11 -20 -11 -11 0 -20 -2 -20 -4 0 -2 -3
-12 -6 -21 -6 -15 -4 -16 17 -3 28 16 49 40 43 50 -3 4 4 13 16 20 11 7 20 23
20 36 0 13 4 21 9 17 6 -3 15 3 21 14 9 17 8 20 -6 14 -12 -4 -15 -2 -12 8 3
8 14 12 24 11 24 -5 25 -6 27 -31 1 -13 8 -21 19 -21 10 0 18 -4 18 -9 0 -13
-18 -23 -22 -12 -1 4 -13 11 -24 15 -21 6 -34 -11 -38 -49 -1 -5 -13 -21 -28
-33 -16 -13 -28 -30 -28 -38 0 -8 -3 -14 -7 -15 -47 -4 -79 -11 -87 -19 -16
-16 0 -23 24 -10 15 8 25 8 34 1 20 -17 41 -4 52 31 10 34 34 50 34 24 0 -20
14 -21 30 -1 7 8 20 15 29 15 12 -1 8 -7 -12 -26 -18 -15 -36 -23 -47 -19 -20
6 -39 -13 -23 -24 5 -3 1 -14 -9 -24 -16 -15 -18 -15 -18 -1 0 13 -3 14 -14 5
-8 -6 -19 -10 -25 -9 -6 2 -21 -12 -32 -30 -12 -19 -16 -32 -9 -30 14 3 37
-28 28 -37 -3 -4 -15 -1 -27 7 -18 11 -23 10 -38 -6 -13 -13 -15 -20 -5 -23
17 -7 15 -23 -3 -23 -8 0 -15 -4 -15 -10 0 -5 -5 -10 -11 -10 -7 0 -19 -9 -29
-20 -9 -11 -26 -21 -38 -23 -11 -2 -27 -9 -36 -16 -11 -10 -16 -10 -16 -2 0 7
-4 9 -10 6 -5 -3 -10 -1 -10 4 0 6 -9 11 -20 11 -11 0 -20 6 -20 13 0 25 91
50 105 28 7 -12 64 4 84 24 14 13 14 15 0 15 -8 0 -20 -5 -27 -12 -7 -7 -12
-8 -12 -4 0 5 -7 3 -15 -4 -9 -7 -18 -10 -22 -7 -10 11 41 46 60 41 11 -4 17
0 17 10 0 23 -16 20 -55 -10 -22 -17 -47 -26 -70 -26 -19 0 -35 -4 -35 -9 0
-15 -20 -10 -42 11 -21 19 -38 19 -38 -1 0 -6 5 -7 10 -4 6 3 18 -1 27 -10 12
-13 13 -19 4 -25 -9 -5 -6 -14 12 -34 13 -14 31 -26 38 -26 9 -1 4 -9 -11 -22
l-25 -20 -3 21 c-3 21 -37 51 -57 51 -5 0 1 -8 15 -18 14 -9 25 -24 25 -33 0
-18 -58 -79 -75 -79 -6 0 -22 -7 -35 -16 -14 -9 -25 -12 -25 -6 0 6 -9 8 -20
5 -13 -3 -20 0 -20 8 0 10 -3 10 -11 2 -15 -15 -2 -34 19 -26 15 6 15 4 -2
-15 -11 -12 -27 -22 -36 -22 -10 0 -23 -6 -29 -14 -7 -8 -26 -18 -42 -21 -16
-4 -29 -11 -29 -16 0 -5 -8 -9 -19 -9 -10 0 -24 -7 -31 -15 -7 -8 -18 -15 -24
-15 -7 0 -30 -8 -52 -19 -37 -18 -96 -44 -139 -61 -57 -24 -291 -106 -340
-119 -16 -5 -82 -23 -145 -41 -63 -17 -135 -36 -160 -41 -140 -29 -199 -41
-230 -45 -561 -74 -968 -67 -1460 25 -235 44 -561 135 -705 196 -16 7 -48 18
-70 25 -67 22 -329 145 -443 209 -37 21 -107 59 -157 86 -108 57 -340 213
-484 325 l-104 80 724 0 724 1 -135 65 c-74 36 -173 89 -220 117 -90 55 -92
56 -130 88 -58 50 -50 49 -702 49 -337 0 -617 4 -623 8 -40 29 -350 390 -342
398 3 3 245 5 537 4 523 -1 533 0 576 20 24 12 53 34 63 49 53 74 26 188 -54
234 -14 9 -214 13 -710 17 l-690 5 -62 99 c-64 103 -173 298 -173 309 0 4 346
8 769 9 l770 3 35 34 c73 70 73 166 3 237 -69 68 30 64 -1372 64 l-361 0 -27
63 c-47 110 -78 198 -128 371 -27 93 -49 171 -49 173 0 2 684 3 1521 2 l1520
-2 32 30 c88 83 293 193 454 244 54 17 107 35 118 39 13 5 34 40 59 99 21 50
42 91 46 91 4 0 19 -18 33 -39 59 -89 174 -166 302 -203 71 -20 102 -23 270
-23 157 0 201 3 250 18 187 58 309 165 369 325 14 37 66 180 117 317 104 285
122 324 191 417 91 124 174 173 688 403 141 64 322 147 435 200 55 26 120 55
145 65 25 10 101 45 170 78 186 88 251 112 310 112 97 0 174 -51 220 -144 l31
-63 -3 -409 c-3 -379 -4 -412 -22 -444 -35 -65 -78 -118 -119 -148 -41 -28
-191 -112 -202 -112 -3 0 -5 63 -5 140 0 136 -1 140 -21 140 -21 0 -130 -51
-156 -72 -9 -8 -13 -51 -13 -152 l0 -141 -69 -31 c-39 -18 -72 -29 -75 -26 -3
3 -6 53 -6 111 0 142 -3 151 -49 151 -43 0 -93 -28 -118 -67 -15 -22 -18 -48
-18 -151 l0 -123 -65 -35 c-35 -18 -66 -34 -68 -34 -2 0 -2 80 0 178 3 168 5
180 30 227 49 94 83 119 288 212 155 71 208 95 334 154 l121 55 3 109 3 108
-31 -6 c-17 -4 -87 -34 -156 -67 -69 -33 -128 -60 -130 -60 -2 0 -52 -23 -111
-51 -59 -28 -117 -55 -128 -59 -135 -59 -1042 -468 -1075 -485 l-45 -23 -48
-144 c-51 -155 -225 -666 -251 -737 -46 -126 -163 -254 -288 -315 -129 -63
-176 -71 -423 -71 -192 1 -232 4 -315 23 -209 50 -336 120 -416 232 -20 28
-41 47 -46 44 -20 -12 -1 -201 26 -279 14 -38 26 -71 26 -72 0 -1 -15 3 -32 9
-39 13 -66 33 -131 95 -26 25 -50 43 -53 40 -4 -3 -3 -22 0 -42 5 -27 26 -55
79 -109 107 -108 267 -181 502 -232 302 -64 647 -53 959 30 128 34 283 97 377
153 229 136 331 290 370 558 6 44 13 82 15 84 8 8 116 -71 172 -126 73 -72
129 -181 138 -268 30 -298 -331 -583 -921 -728 -214 -53 -431 -77 -700 -77
-624 0 -1116 155 -1386 436 -48 50 -127 166 -142 208 -18 49 -38 -118 -26
-214 17 -136 67 -238 182 -372 38 -44 66 -83 62 -86 -19 -20 -238 146 -293
221 -38 52 -61 100 -82 170 -6 20 -14 37 -17 37 -11 0 6 -224 21 -295 9 -38
30 -98 48 -132 34 -67 33 -85 -4 -60 -66 45 -155 150 -196 233 -36 72 -63 192
-61 273 1 41 -2 76 -7 78 -23 8 -49 -101 -48 -197 1 -156 49 -258 192 -411
105 -111 217 -193 377 -273 291 -147 626 -239 1025 -282 187 -20 646 -15 825
10 356 48 664 136 933 266 402 195 635 432 694 704 14 66 4 197 -22 270 -24
72 -96 180 -173 263 l-60 64 2 135 c1 75 6 146 11 158 21 57 97 108 265 181
612 264 765 339 860 422 40 35 126 145 149 191 60 118 60 117 64 631 2 327 0
494 -8 542 -34 198 -207 392 -389 433 -160 36 -246 17 -540 -121 -53 -25 -136
-63 -186 -85 -49 -22 -95 -44 -101 -49 -6 -5 -28 -15 -50 -23 -21 -8 -83 -35
-137 -60 -54 -25 -100 -46 -102 -46 -2 0 -71 -31 -152 -69 -81 -38 -242 -112
-356 -165 -301 -139 -391 -199 -507 -334 -112 -129 -161 -229 -272 -547 -33
-93 -63 -181 -67 -195 -21 -66 -75 -161 -113 -198 -66 -66 -129 -86 -273 -86
-106 -1 -130 2 -208 28 -72 23 -99 38 -143 79 -64 58 -84 92 -84 142 0 22 33
120 84 248 46 117 116 294 155 394 130 329 203 407 506 538 72 31 163 72 203
91 41 19 76 34 78 34 3 0 181 80 849 380 315 142 802 352 878 379 69 24 141
41 317 75 53 10 248 -4 327 -23z m-3527 -348 c11 -26 28 -56 38 -66 22 -25 86
-57 112 -57 33 0 23 -16 -20 -29 -21 -6 -53 -23 -70 -38 -32 -26 -70 -91 -70
-118 0 -8 -4 -15 -10 -15 -5 0 -10 9 -10 20 0 64 -81 145 -156 157 -35 6 -47
23 -16 23 10 0 42 12 70 26 52 26 102 88 102 127 0 28 8 20 30 -30z m-3474
-458 c49 -20 70 -71 50 -119 -14 -34 -59 -66 -92 -66 -9 0 -31 15 -50 34 -52
52 -43 119 21 154 26 15 29 15 71 -3z m442 -827 c11 -23 10 -31 -4 -53 -25
-39 -69 -33 -93 13 -10 19 -10 28 4 48 23 35 74 30 93 -8z m2513 -1 c47 -36
52 -105 10 -148 -59 -59 -151 -16 -153 72 -2 63 93 114 143 76z m-3030 -414
c33 -20 65 -90 55 -121 -19 -59 -90 -88 -149 -61 -70 32 -66 147 6 183 41 20
52 20 88 -1z m2140 -113 c23 -13 25 -53 3 -71 -33 -27 -72 33 -44 67 15 17 16
17 41 4z m-691 -205 c25 -30 -16 -79 -46 -54 -15 12 -19 51 -7 62 11 12 40 8
53 -8z m5440 -775 c0 -5 -4 -10 -10 -10 -5 0 -10 5 -10 10 0 6 5 10 10 10 6 0
10 -4 10 -10z m550 6 c0 -3 -4 -8 -10 -11 -5 -3 -10 -1 -10 4 0 6 5 11 10 11
6 0 10 -2 10 -4z m-482 -30 c-7 -8 -16 -12 -21 -9 -11 7 2 23 19 23 12 0 12
-2 2 -14z m348 -10 c0 -14 -5 -21 -9 -17 -4 4 -5 15 -1 24 9 24 12 21 10 -7z
m-46 10 c0 -3 -4 -8 -10 -11 -5 -3 -10 -1 -10 4 0 6 5 11 10 11 6 0 10 -2 10
-4z m138 -25 c-7 -11 -16 -17 -20 -15 -14 9 -9 22 10 27 9 3 18 5 20 6 1 0 -3
-8 -10 -18z m-311 -13 c-3 -8 -6 -5 -6 6 -1 11 2 17 5 13 3 -3 4 -12 1 -19z
m-362 2 c3 -5 1 -10 -4 -10 -6 0 -11 5 -11 10 0 6 2 10 4 10 3 0 8 -4 11 -10z
m409 -14 c-3 -9 -12 -16 -20 -16 -11 0 -10 4 3 20 19 22 26 21 17 -4z m51 14
c3 -6 -1 -7 -9 -4 -18 7 -21 14 -7 14 6 0 13 -4 16 -10z m89 -5 c-4 -8 -8 -15
-10 -15 -2 0 -4 7 -4 15 0 8 4 15 10 15 5 0 7 -7 4 -15z m-509 -5 c-3 -5 -11
-10 -16 -10 -6 0 -7 5 -4 10 3 6 11 10 16 10 6 0 7 -4 4 -10z m295 0 c0 -5 -4
-10 -10 -10 -5 0 -10 5 -10 10 0 6 5 10 10 10 6 0 10 -4 10 -10z m440 1 c0 -6
-4 -13 -10 -16 -5 -3 -10 1 -10 9 0 9 5 16 10 16 6 0 10 -4 10 -9z m-240 -26
c11 -13 10 -14 -4 -9 -9 3 -16 10 -16 15 0 13 6 11 20 -6z m-346 -11 c5 -14 4
-15 -9 -4 -17 14 -19 20 -6 20 5 0 12 -7 15 -16z m86 -2 c0 -12 -3 -12 -15 -2
-8 7 -15 13 -15 15 0 1 7 2 15 2 8 0 15 -7 15 -15z m-130 -2 c0 -5 -2 -10 -4
-10 -3 0 -8 5 -11 10 -3 6 -1 10 4 10 6 0 11 -4 11 -10z m200 -17 c0 11 5 15
11 11 7 -4 7 -10 1 -16 -6 -6 -8 -17 -5 -24 10 -26 -13 -14 -30 15 -23 39 -22
49 3 20 17 -21 19 -22 20 -6z m150 17 c0 -5 -2 -10 -4 -10 -3 0 -8 5 -11 10
-3 6 -1 10 4 10 6 0 11 -4 11 -10z m337 -17 c-3 -3 -11 -2 -17 2 -9 6 -9 10 1
16 14 8 27 -7 16 -18z m-386 -13 l8 25 -2 -24 c-3 -31 -27 -40 -34 -12 -4 17
-9 19 -24 10 -23 -12 -24 -6 -2 16 15 16 17 15 32 -12 l15 -28 7 25z m-441 -2
c0 -19 -2 -20 -10 -8 -13 19 -13 30 0 30 6 0 10 -10 10 -22z m501 -1 c-10 -9
-11 -8 -5 6 3 10 9 15 12 12 3 -3 0 -11 -7 -18z m-331 3 c0 -5 -5 -10 -11 -10
-5 0 -7 5 -4 10 3 6 8 10 11 10 2 0 4 -4 4 -10z m76 -27 c-7 -7 -26 7 -26 19
0 6 6 6 15 -2 9 -7 13 -15 11 -17z m364 12 c-7 -9 -15 -13 -19 -10 -3 3 1 10
9 15 21 14 24 12 10 -5z m90 0 c0 -8 -4 -15 -10 -15 -5 0 -7 7 -4 15 4 8 8 15
10 15 2 0 4 -7 4 -15z m-674 -10 c-8 -8 -18 -15 -22 -15 -3 0 -1 7 6 15 7 8
17 15 22 15 5 0 3 -7 -6 -15z m864 5 c0 -5 -4 -10 -10 -10 -5 0 -10 5 -10 10
0 6 5 10 10 10 6 0 10 -4 10 -10z m-790 -10 c0 -5 -4 -10 -10 -10 -5 0 -10 5
-10 10 0 6 5 10 10 10 6 0 10 -4 10 -10z m210 -27 c-19 -30 -61 -56 -71 -46
-7 7 1 15 21 23 17 7 35 22 41 32 6 11 13 18 16 15 2 -3 -1 -13 -7 -24z m337
5 c-3 -8 -6 -5 -6 6 -1 11 2 17 5 13 3 -3 4 -12 1 -19z m143 18 c0 -2 -8 -10
-17 -17 -16 -13 -17 -12 -4 4 13 16 21 21 21 13z m-626 -18 c-3 -4 -12 -8 -20
-8 -8 0 -13 4 -10 8 3 5 12 9 20 9 8 0 13 -4 10 -9z m386 -9 c0 -5 -4 -9 -10
-9 -5 0 -10 7 -10 16 0 8 5 12 10 9 6 -3 10 -10 10 -16z m50 17 c0 -11 -19
-15 -25 -6 -3 5 1 10 9 10 9 0 16 -2 16 -4z m-110 -16 c0 -5 -4 -10 -10 -10
-5 0 -10 5 -10 10 0 6 5 10 10 10 6 0 10 -4 10 -10z m-120 -16 c0 -2 -7 -4
-15 -4 -8 0 -15 4 -15 10 0 5 7 7 15 4 8 -4 15 -8 15 -10z m26 -12 c-8 -16
-21 -34 -29 -40 -18 -16 -47 -5 -47 17 0 9 3 12 8 6 12 -17 29 -12 52 18 28
35 34 35 16 -1z m-184 -4 c-6 -6 -8 -17 -5 -24 3 -8 1 -14 -4 -14 -10 0 -14
26 -7 48 2 7 9 10 15 7 7 -5 7 -11 1 -17z m248 7 c0 -12 -19 -12 -23 0 -4 9
-1 12 9 8 7 -3 14 -7 14 -8z m287 -7 c-3 -8 -6 -5 -6 6 -1 11 2 17 5 13 3 -3
4 -12 1 -19z m-187 -8 c0 -5 -4 -10 -10 -10 -5 0 -10 5 -10 10 0 6 5 10 10 10
6 0 10 -4 10 -10z m44 -5 c-4 -8 -13 -15 -20 -15 -12 0 -12 3 -2 15 17 19 29
19 22 0z m-99 -5 c3 -5 1 -10 -4 -10 -6 0 -11 5 -11 10 0 6 2 10 4 10 3 0 8
-4 11 -10z m141 -17 c-10 -10 -19 5 -10 18 6 11 8 11 12 0 2 -7 1 -15 -2 -18z
m-218 5 c-6 -18 -28 -21 -28 -4 0 9 7 16 16 16 9 0 14 -5 12 -12z m312 -10 c0
-19 -2 -20 -10 -8 -13 19 -13 30 0 30 6 0 10 -10 10 -22z m-440 2 c0 -5 -5
-10 -11 -10 -5 0 -7 5 -4 10 3 6 8 10 11 10 2 0 4 -4 4 -10z m556 -2 c4 -7 3
-8 -4 -4 -7 4 -12 1 -12 -8 0 -9 -7 -16 -15 -16 -18 0 -19 12 -3 28 15 15 25
15 34 0z m-744 -20 c-7 -7 -12 -8 -12 -2 0 14 12 26 19 19 2 -3 -1 -11 -7 -17z
m133 5 c-2 -10 -4 -21 -4 -24 -1 -4 -8 -9 -16 -13 -8 -3 -14 0 -12 7 1 7 -6
11 -15 9 -11 -2 -18 3 -18 13 0 9 4 14 9 11 5 -4 20 -2 33 3 12 6 24 10 25 10
1 1 0 -7 -2 -16z m-195 -3 c0 -5 -4 -10 -10 -10 -5 0 -10 5 -10 10 0 6 5 10
10 10 6 0 10 -4 10 -10z m110 -15 c0 -9 -6 -12 -15 -9 -8 4 -15 2 -15 -4 0 -6
4 -12 9 -14 4 -1 11 -13 15 -24 5 -18 3 -21 -16 -20 -15 1 -22 7 -19 16 2 8 3
25 3 37 -1 13 5 23 16 26 9 3 18 5 20 6 1 0 2 -6 2 -14z m120 11 c0 -3 -4 -8
-10 -11 -5 -3 -10 -1 -10 4 0 6 5 11 10 11 6 0 10 -2 10 -4z m70 -6 c8 -5 11
-12 8 -16 -10 -9 -38 3 -38 16 0 12 10 13 30 0z m80 -37 c0 -2 -10 2 -22 8
-16 9 -23 9 -26 0 -2 -6 -8 -11 -13 -11 -5 0 -2 11 7 25 l16 25 19 -21 c11
-12 19 -24 19 -26z m88 29 c2 -7 -3 -12 -12 -12 -9 0 -16 7 -16 16 0 17 22 14
28 -4z m132 6 c0 -15 -18 -17 -30 -3 -9 11 -8 14 9 12 12 -1 21 -5 21 -9z
m-104 -25 c-10 -10 -19 5 -10 18 6 11 8 11 12 0 2 -7 1 -15 -2 -18z m370 1
c-4 -9 -9 -15 -11 -12 -3 3 -3 13 1 22 4 9 9 15 11 12 3 -3 3 -13 -1 -22z
m-627 -10 c-15 -18 -22 -13 -13 10 3 9 10 13 16 10 5 -3 4 -12 -3 -20z m321 6
c0 -5 -2 -10 -4 -10 -3 0 -8 5 -11 10 -3 6 -1 10 4 10 6 0 11 -4 11 -10z m280
6 c0 -2 -7 -7 -16 -10 -8 -3 -12 -2 -9 4 6 10 25 14 25 6z m-623 -35 c10 -16
8 -22 -12 -41 -16 -15 -25 -18 -30 -10 -4 7 2 18 15 27 17 12 19 18 10 27 -9
8 -14 8 -17 -1 -3 -7 -11 -13 -18 -13 -9 0 -12 -10 -10 -30 4 -32 -5 -39 -25
-15 -14 17 -4 55 14 55 8 0 19 6 26 14 14 18 31 13 47 -13z m500 -3 c-3 -7 -5
-2 -5 12 0 14 2 19 5 13 2 -7 2 -19 0 -25z m-432 11 c4 -6 4 -13 0 -17 -4 -4
-10 -1 -12 6 -3 6 -9 10 -14 6 -5 -3 -9 0 -9 5 0 14 27 14 35 0z m210 1 c3 -5
1 -10 -4 -10 -6 0 -11 5 -11 10 0 6 2 10 4 10 3 0 8 -4 11 -10z m-96 -27 c2
-2 -5 -3 -17 -3 -14 0 -22 6 -22 16 0 14 3 15 18 3 9 -7 19 -15 21 -16z m31
17 c0 -5 -4 -10 -9 -10 -6 0 -13 5 -16 10 -3 6 1 10 9 10 9 0 16 -4 16 -10z
m130 0 c0 -5 -7 -7 -15 -4 -8 4 -15 8 -15 10 0 2 7 4 15 4 8 0 15 -4 15 -10z
m264 -5 c-4 -8 -11 -15 -16 -15 -6 0 -5 6 2 15 7 8 14 15 16 15 2 0 1 -7 -2
-15z m-495 -22 c0 -11 -3 -13 -6 -5 -2 6 -10 9 -15 6 -7 -4 -8 -2 -4 4 11 18
26 14 25 -5z m131 8 c0 -5 3 -17 7 -27 4 -11 3 -15 -4 -11 -14 9 -24 47 -12
47 5 0 9 -4 9 -9z m-187 -30 c-12 -9 -22 -22 -24 -29 -3 -8 -8 -5 -16 8 -11
17 -9 21 15 34 34 18 52 9 25 -13z m247 -3 c0 -6 -7 -5 -15 2 -8 7 -15 17 -15
22 0 6 7 5 15 -2 8 -7 15 -17 15 -22z m250 22 c0 -5 -5 -10 -11 -10 -5 0 -7 5
-4 10 3 6 8 10 11 10 2 0 4 -4 4 -10z m-683 -9 c17 14 17 -3 1 -19 -10 -10
-10 -15 2 -22 8 -5 11 -12 8 -15 -10 -10 -28 4 -28 22 0 9 -6 13 -15 9 -9 -3
-15 0 -15 8 0 19 12 28 24 16 6 -6 14 -6 23 1z m338 -11 c10 -11 16 -20 13
-20 -3 0 -13 9 -23 20 -10 11 -16 20 -13 20 3 0 13 -9 23 -20z m139 -6 c4 -15
5 -29 1 -32 -3 -3 -5 2 -5 11 0 10 -4 17 -10 17 -5 0 -10 7 -10 15 0 25 17 17
24 -11z m136 16 c0 -5 -4 -10 -10 -10 -5 0 -10 5 -10 10 0 6 5 10 10 10 6 0
10 -4 10 -10z m-316 -9 c9 -14 -4 -41 -20 -41 -26 0 -14 -17 16 -23 17 -4 30
-11 30 -17 0 -13 -17 -13 -25 0 -5 8 -11 8 -20 0 -9 -8 -17 -4 -29 15 -10 15
-22 22 -31 19 -11 -5 -13 -2 -9 11 5 11 14 15 28 11 26 -6 51 8 42 23 -4 6 -3
11 3 11 5 0 12 -4 15 -9z m-251 -27 c25 -34 16 -40 -16 -10 -14 13 -23 27 -20
30 10 10 17 6 36 -20z m172 16 c-3 -5 -10 -10 -16 -10 -5 0 -9 5 -9 10 0 6 7
10 16 10 8 0 12 -4 9 -10z m195 -4 c0 -3 -4 -8 -10 -11 -5 -3 -10 -1 -10 4 0
6 5 11 10 11 6 0 10 -2 10 -4z m220 -6 c0 -5 -4 -10 -10 -10 -5 0 -10 5 -10
10 0 6 5 10 10 10 6 0 10 -4 10 -10z m170 -4 c0 -3 -4 -8 -10 -11 -5 -3 -10
-1 -10 4 0 6 5 11 10 11 6 0 10 -2 10 -4z m-460 -16 c8 -5 11 -12 8 -16 -10
-9 -38 3 -38 16 0 12 10 13 30 0z m170 0 c0 -5 -4 -10 -10 -10 -5 0 -10 5 -10
10 0 6 5 10 10 10 6 0 10 -4 10 -10z m-115 -20 c3 -5 -1 -10 -9 -10 -9 0 -16
5 -16 10 0 6 4 10 9 10 6 0 13 -4 16 -10z m50 0 c8 -13 -5 -13 -25 0 -13 8
-13 10 2 10 9 0 20 -4 23 -10z m-215 -15 c0 -8 -7 -15 -15 -15 -16 0 -20 12
-8 23 11 12 23 8 23 -8z m-170 -5 c0 -5 -5 -10 -11 -10 -6 0 -9 -7 -6 -15 7
-18 -6 -27 -27 -19 -13 5 -14 10 -5 20 6 7 8 18 4 24 -4 6 4 10 19 10 14 0 26
-4 26 -10z m448 -10 c-15 -24 -28 -26 -28 -4 0 8 5 12 10 9 6 -3 10 -1 10 4 0
6 5 11 10 11 6 0 5 -8 -2 -20z m97 10 c-3 -5 -13 -10 -21 -10 -8 0 -13 -3 -10
-8 7 -12 -22 -45 -33 -37 -17 10 -13 35 4 29 9 -4 15 0 15 9 0 14 14 22 43 26
5 0 5 -3 2 -9z m-175 -10 c0 -5 -5 -10 -11 -10 -5 0 -7 5 -4 10 3 6 8 10 11
10 2 0 4 -4 4 -10z m220 -21 c0 -6 -4 -7 -10 -4 -5 3 -10 11 -10 16 0 6 5 7
10 4 6 -3 10 -11 10 -16z m80 7 c0 -8 -4 -18 -10 -21 -5 -3 -10 3 -10 14 0 12
5 21 10 21 6 0 10 -6 10 -14z m-488 -18 c-7 -7 -12 -8 -12 -2 0 14 12 26 19
19 2 -3 -1 -11 -7 -17z m192 -11 c8 -13 8 -20 -2 -26 -7 -4 -10 -16 -6 -27 6
-18 6 -18 -8 1 -18 25 -22 78 -6 73 6 -2 16 -12 22 -21z m48 -37 c-28 -26 -35
-13 -9 16 12 14 23 20 25 14 2 -6 -5 -20 -16 -30z m-357 4 c-10 -7 -22 -11
-27 -8 -5 3 -1 12 9 19 10 7 22 11 27 8 5 -4 1 -12 -9 -19z m254 4 c6 -10 8
-18 3 -18 -13 0 -62 25 -62 31 0 14 49 3 59 -13z m155 -5 c-8 -34 -10 -37 -22
-29 -7 4 -6 15 1 31 16 33 29 32 21 -2z m156 7 c0 -5 -5 -10 -11 -10 -5 0 -7
5 -4 10 3 6 8 10 11 10 2 0 4 -4 4 -10z m45 -20 c3 -5 1 -10 -4 -10 -6 0 -11
5 -11 10 0 6 2 10 4 10 3 0 8 -4 11 -10z m65 0 c0 -5 -4 -10 -10 -10 -5 0 -10
5 -10 10 0 6 5 10 10 10 6 0 10 -4 10 -10z m42 -12 c-7 -7 -12 -8 -12 -2 0 14
12 26 19 19 2 -3 -1 -11 -7 -17z m-514 -17 c-15 -24 -28 -27 -28 -6 0 13 31
38 38 30 2 -2 -3 -12 -10 -24z m328 10 c-4 -5 -15 -9 -26 -8 -10 1 -16 5 -14
9 3 5 9 6 14 3 5 -3 12 0 15 6 4 5 9 8 12 5 3 -2 2 -9 -1 -15z m-90 -29 c-10
-10 -29 15 -21 28 6 9 10 8 17 -4 6 -10 7 -20 4 -24z m-139 2 c-7 -7 -37 7
-37 17 0 6 9 5 21 -1 11 -7 19 -14 16 -16z m28 -26 c-14 -29 -14 -34 0 -44 17
-13 20 -34 5 -34 -17 0 -46 53 -32 58 6 2 12 10 12 18 0 9 5 25 12 37 18 35
22 2 3 -35z m305 42 c0 -5 -5 -10 -11 -10 -5 0 -7 5 -4 10 3 6 8 10 11 10 2 0
4 -4 4 -10z m-84 -27 c-10 -10 -19 5 -10 18 6 11 8 11 12 0 2 -7 1 -15 -2 -18z
m-146 -2 c0 -4 -3 -10 -6 -14 -8 -7 -33 16 -28 25 6 9 34 -1 34 -11z m295 9
c-3 -5 -11 -10 -16 -10 -6 0 -7 5 -4 10 3 6 11 10 16 10 6 0 7 -4 4 -10z
m-105 -4 c0 -3 -4 -8 -10 -11 -5 -3 -10 -1 -10 4 0 6 5 11 10 11 6 0 10 -2 10
-4z m-370 -10 c0 -11 -19 -15 -25 -6 -3 5 1 10 9 10 9 0 16 -2 16 -4z m55 -28
c-3 -38 -14 -44 -40 -23 -20 16 -19 16 3 10 22 -6 31 8 12 20 -13 8 -3 25 14
25 9 0 13 -11 11 -32z m118 -28 c-3 -11 -9 -20 -14 -20 -11 0 -11 3 -3 24 9
23 23 20 17 -4z m192 -8 c-3 -3 -11 0 -18 7 -9 10 -8 11 6 5 10 -3 15 -9 12
-12z m85 -2 c0 -5 -2 -10 -4 -10 -3 0 -8 5 -11 10 -3 6 -1 10 4 10 6 0 11 -4
11 -10z m-432 -24 c3 -12 -1 -17 -10 -14 -7 3 -15 13 -16 22 -3 12 1 17 10 14
7 -3 15 -13 16 -22z m52 -11 c0 -14 -4 -25 -10 -25 -5 0 -10 11 -10 25 0 14 5
25 10 25 6 0 10 -11 10 -25z m140 6 c0 -6 -4 -12 -8 -15 -5 -3 -9 1 -9 9 0 8
4 15 9 15 4 0 8 -4 8 -9z m-70 -16 c0 -8 -4 -15 -9 -15 -13 0 -22 16 -14 24
11 11 23 6 23 -9z m120 -15 c-6 -11 -16 -17 -22 -14 -7 5 -5 12 7 21 25 18 28
17 15 -7z m53 0 c-3 -11 -9 -20 -14 -20 -14 0 -11 28 4 33 6 3 13 6 14 6 0 1
-1 -8 -4 -19z m117 -4 c0 -3 -4 -8 -10 -11 -5 -3 -10 -1 -10 4 0 6 5 11 10 11
6 0 10 -2 10 -4z m-315 -26 c-4 -14 -2 -20 9 -20 10 0 13 -6 9 -16 -3 -9 0
-20 8 -24 7 -5 10 -13 5 -17 -5 -4 -11 -2 -13 5 -3 6 -9 10 -14 6 -5 -3 -8 0
-7 7 2 7 -8 16 -22 20 -16 4 -19 7 -7 8 11 1 17 9 17 26 0 14 5 25 11 25 6 0
8 -9 4 -20z m45 10 c0 -5 -2 -10 -4 -10 -3 0 -8 5 -11 10 -3 6 -1 10 4 10 6 0
11 -4 11 -10z m200 -5 c0 -8 -2 -15 -4 -15 -2 0 -6 7 -10 15 -3 8 -1 15 4 15
6 0 10 -7 10 -15z m-290 -15 c0 -5 -2 -10 -4 -10 -3 0 -8 5 -11 10 -3 6 -1 10
4 10 6 0 11 -4 11 -10z m145 -20 c-3 -5 -10 -10 -16 -10 -5 0 -9 5 -9 10 0 6
7 10 16 10 8 0 12 -4 9 -10z m75 6 c0 -2 -7 -6 -15 -10 -8 -3 -15 -1 -15 4 0
6 7 10 15 10 8 0 15 -2 15 -4z m48 -21 c-6 -14 -15 -25 -20 -25 -5 0 -7 3 -5
8 2 4 7 15 10 25 4 9 11 17 16 17 7 0 6 -9 -1 -25z m-163 -5 c3 -6 -1 -7 -9
-4 -18 7 -21 14 -7 14 6 0 13 -4 16 -10z m104 -5 c7 3 8 0 5 -9 -7 -18 -24
-22 -24 -6 0 6 -7 10 -16 10 -8 0 -12 5 -9 10 5 8 11 7 20 0 8 -7 19 -9 24 -5z
m-99 -31 c0 -8 -5 -12 -10 -9 -6 4 -8 11 -5 16 9 14 15 11 15 -7z m-89 -7 c-1
-12 -15 -9 -19 4 -3 6 1 10 8 8 6 -3 11 -8 11 -12z m-54 -15 c-13 -3 -17 -10
-14 -23 3 -12 0 -19 -9 -19 -8 0 -14 7 -14 15 0 23 23 43 40 37 12 -5 11 -7
-3 -10z m333 4 c0 -3 -4 -8 -10 -11 -5 -3 -10 -1 -10 4 0 6 5 11 10 11 6 0 10
-2 10 -4z m125 -6 c3 -5 2 -10 -4 -10 -5 0 -13 5 -16 10 -3 6 -2 10 4 10 5 0
13 -4 16 -10z m-325 -10 c0 -5 -4 -10 -9 -10 -6 0 -13 5 -16 10 -3 6 1 10 9
10 9 0 16 -4 16 -10z m-95 -10 c-3 -5 -11 -10 -16 -10 -6 0 -7 5 -4 10 3 6 11
10 16 10 6 0 7 -4 4 -10z m255 -10 c0 -5 -5 -10 -11 -10 -5 0 -7 5 -4 10 3 6
8 10 11 10 2 0 4 -4 4 -10z m-370 -29 c0 -5 -6 -16 -14 -23 -8 -8 -16 -23 -18
-34 -4 -21 -26 -28 -47 -15 -18 11 -5 31 20 31 10 0 19 6 19 13 0 14 20 37 32
37 4 0 8 -4 8 -9z m160 -1 c0 -5 -4 -10 -10 -10 -5 0 -10 5 -10 10 0 6 5 10
10 10 6 0 10 -4 10 -10z m30 1 c0 -5 -4 -21 -10 -35 -8 -21 -5 -28 18 -45 15
-11 24 -23 20 -27 -4 -4 -19 5 -33 19 -22 21 -25 31 -19 61 5 32 24 52 24 27z
m40 -1 c0 -5 -5 -10 -11 -10 -5 0 -7 5 -4 10 3 6 8 10 11 10 2 0 4 -4 4 -10z
m95 0 c3 -5 1 -10 -4 -10 -6 0 -11 5 -11 10 0 6 2 10 4 10 3 0 8 -4 11 -10z
m-281 -6 c24 -9 19 -21 -8 -21 -17 0 -23 4 -19 13 6 16 6 16 27 8z m82 -26 c4
-6 3 -8 -4 -4 -6 4 -12 -4 -14 -21 -2 -19 -10 -29 -23 -31 -19 -3 -19 -2 -2
11 9 8 17 17 17 20 0 3 -8 7 -17 10 -15 3 -14 6 7 15 14 6 26 11 27 11 1 1 5
-4 9 -11z m142 -13 c-3 -3 -9 2 -12 12 -6 14 -5 15 5 6 7 -7 10 -15 7 -18z
m-48 -5 c0 -5 -4 -10 -10 -10 -5 0 -10 5 -10 10 0 6 5 10 10 10 6 0 10 -4 10
-10z m210 0 c0 -5 -4 -10 -10 -10 -5 0 -10 5 -10 10 0 6 5 10 10 10 6 0 10 -4
10 -10z m-420 -11 c0 -8 5 -8 15 1 8 7 15 10 15 7 0 -7 -49 -57 -55 -57 -3 0
0 43 4 58 3 8 21 0 21 -9z m335 1 c3 -6 -1 -7 -9 -4 -18 7 -21 14 -7 14 6 0
13 -4 16 -10z m53 -60 c-12 -19 -28 -27 -28 -14 0 6 30 33 38 34 1 0 -3 -9
-10 -20z m-338 -1 c0 -6 6 -9 13 -6 17 6 60 -30 52 -43 -5 -8 -12 -4 -22 9 -8
12 -19 19 -24 15 -5 -3 -16 -1 -24 6 -11 9 -20 5 -45 -16 -19 -18 -27 -31 -21
-37 7 -7 7 -17 0 -29 -5 -10 -6 -24 -2 -31 4 -6 8 -18 10 -26 1 -8 7 -18 15
-22 7 -4 9 -11 6 -14 -12 -12 -26 4 -54 60 -26 54 -26 56 -9 75 10 11 23 20
30 20 6 0 18 11 25 25 13 25 50 35 50 14z m70 1 c0 -5 -4 -10 -10 -10 -5 0
-10 5 -10 10 0 6 5 10 10 10 6 0 10 -4 10 -10z m56 -10 c20 0 18 -14 -7 -41
-19 -23 -20 -23 -10 -2 13 26 14 33 4 32 -19 -3 -33 2 -33 12 0 6 7 8 16 5 9
-3 22 -6 30 -6z m-99 -62 c-3 -8 -6 -5 -6 6 -1 11 2 17 5 13 3 -3 4 -12 1 -19z
m283 -4 c0 -8 -4 -12 -10 -9 -5 3 -10 10 -10 16 0 5 5 9 10 9 6 0 10 -7 10
-16z m-230 -15 c0 -5 -4 -9 -10 -9 -5 0 -10 7 -10 16 0 8 5 12 10 9 6 -3 10
-10 10 -16z m-233 -21 c-3 -7 -5 -2 -5 12 0 14 2 19 5 13 2 -7 2 -19 0 -25z
m354 -1 c-8 -8 -11 -7 -11 4 0 20 13 34 18 19 3 -7 -1 -17 -7 -23z m-66 3 c3
-5 1 -10 -4 -10 -6 0 -11 5 -11 10 0 6 2 10 4 10 3 0 8 -4 11 -10z m-167 -29
c3 -8 -1 -12 -9 -9 -7 2 -15 10 -17 17 -3 8 1 12 9 9 7 -2 15 -10 17 -17z m88
-6 c10 -8 17 -15 14 -16 -32 -7 -46 -3 -46 13 0 22 6 22 32 3z m201 -1 c-3 -3
-12 -4 -19 -1 -8 3 -5 6 6 6 11 1 17 -2 13 -5z m-153 -20 c3 -8 2 -12 -4 -9
-6 3 -10 10 -10 16 0 14 7 11 14 -7z m141 -3 c3 -5 1 -12 -5 -16 -5 -3 -10 1
-10 9 0 18 6 21 15 7z m-95 -11 c0 -5 -4 -10 -10 -10 -5 0 -10 5 -10 10 0 6 5
10 10 10 6 0 10 -4 10 -10z m-240 -16 c0 -8 -4 -12 -10 -9 -5 3 -10 10 -10 16
0 5 5 9 10 9 6 0 10 -7 10 -16z m106 -21 c-7 -7 -26 7 -26 19 0 6 6 6 15 -2 9
-7 13 -15 11 -17z m64 17 c0 -5 -2 -10 -4 -10 -3 0 -8 5 -11 10 -3 6 -1 10 4
10 6 0 11 -4 11 -10z m-30 -10 c0 -5 -4 -10 -10 -10 -5 0 -10 5 -10 10 0 6 5
10 10 10 6 0 10 -4 10 -10z m150 0 c0 -5 -4 -10 -10 -10 -5 0 -10 5 -10 10 0
6 5 10 10 10 6 0 10 -4 10 -10z m-237 -25 c4 -8 2 -17 -3 -20 -6 -4 -10 3 -10
14 0 25 6 27 13 6z m-30 -15 c-3 -11 -9 -20 -14 -20 -10 0 -12 24 -2 33 13 13
21 7 16 -13z m77 -8 c0 -4 -8 -15 -17 -23 -10 -9 -23 -24 -29 -35 -10 -17 -11
-17 -16 4 -4 15 -2 22 8 22 8 0 14 6 14 14 0 8 6 17 13 19 19 8 27 8 27 -1z
m194 -7 c-7 -16 -24 -21 -24 -6 0 8 7 13 27 20 1 1 0 -6 -3 -14z m-154 -9 c0
-3 -4 -8 -10 -11 -5 -3 -10 -1 -10 4 0 6 5 11 10 11 6 0 10 -2 10 -4z m-113
-53 c4 -11 -26 -27 -35 -19 -2 3 -2 12 2 21 6 18 27 16 33 -2z m123 -13 c0 -5
-4 -10 -10 -10 -5 0 -10 5 -10 10 0 6 5 10 10 10 6 0 10 -4 10 -10z m-45 -20
c-3 -5 -11 -10 -16 -10 -6 0 -7 5 -4 10 3 6 11 10 16 10 6 0 7 -4 4 -10z m82
4 c-3 -3 -12 -4 -19 -1 -8 3 -5 6 6 6 11 1 17 -2 13 -5z m-167 -24 c0 -5 -5
-10 -11 -10 -5 0 -7 5 -4 10 3 6 8 10 11 10 2 0 4 -4 4 -10z m-90 -30 c0 -11
-7 -20 -15 -20 -13 0 -13 3 -3 20 7 11 14 20 15 20 2 0 3 -9 3 -20z m286 4
c-3 -9 -6 -18 -6 -20 0 -2 -4 -4 -9 -4 -5 0 -7 9 -4 20 3 11 10 20 15 20 6 0
7 -7 4 -16z m64 12 c0 -3 -4 -8 -10 -11 -5 -3 -10 -1 -10 4 0 6 5 11 10 11 6
0 10 -2 10 -4z m-253 -15 c8 7 13 8 13 1 0 -18 -28 -21 -41 -4 -11 14 -11 15
1 5 10 -9 17 -10 27 -2z m86 -11 c-3 -11 -9 -17 -14 -15 -4 3 -13 -4 -19 -15
-6 -11 -16 -17 -22 -14 -7 5 1 18 22 36 41 33 39 33 33 8z m-237 -5 c-3 -9 1
-18 9 -21 17 -7 21 -34 5 -34 -5 0 -10 5 -10 11 0 7 -11 8 -32 4 l-32 -7 30
30 c33 35 39 38 30 17z m98 3 c-4 -7 -13 -20 -20 -28 -7 -8 -14 -26 -16 -40
-3 -24 -4 -24 -10 -3 -4 14 2 32 16 52 20 29 45 44 30 19z m31 -48 c-21 -24
-35 -26 -35 -6 0 8 10 17 23 19 12 2 24 5 26 6 2 0 -4 -8 -14 -19z m200 0 c3
-5 1 -10 -4 -10 -6 0 -11 5 -11 10 0 6 2 10 4 10 3 0 8 -4 11 -10z m-405 -21
c0 -5 8 -9 17 -9 12 0 14 -3 6 -11 -8 -8 -16 -7 -31 2 -16 10 -23 10 -36 0 -8
-7 -21 -9 -27 -5 -9 5 -8 10 3 18 19 14 68 17 68 5z m290 1 c0 -5 -4 -10 -10
-10 -5 0 -10 5 -10 10 0 6 5 10 10 10 6 0 10 -4 10 -10z m-245 -59 c-14 -13
-16 -13 -11 -1 3 8 9 24 13 35 7 19 7 19 11 1 2 -10 -4 -26 -13 -35z m60 39
c3 -5 1 -10 -4 -10 -6 0 -11 5 -11 10 0 6 2 10 4 10 3 0 8 -4 11 -10z m65 0
c0 -5 -2 -10 -4 -10 -3 0 -8 5 -11 10 -3 6 -1 10 4 10 6 0 11 -4 11 -10z m63
-10 c-6 -21 -18 -26 -28 -11 -4 7 17 28 32 31 0 0 -1 -9 -4 -20z m-223 -24 c0
-6 -4 -16 -8 -22 -11 -16 -72 -44 -72 -33 0 5 11 14 25 19 38 14 31 32 -10 25
-19 -3 -51 -7 -70 -10 -20 -4 -39 -14 -45 -25 -14 -26 -33 -26 -25 -1 3 11 1
22 -5 26 -17 11 -11 23 13 27 58 8 197 4 197 -6z m110 -15 c0 -6 -4 -13 -10
-16 -5 -3 -10 -15 -10 -25 0 -10 -4 -21 -9 -25 -11 -6 -8 30 4 58 8 18 25 24
25 8z m-61 -25 c-12 -10 -49 -16 -49 -7 0 5 10 11 23 13 22 4 34 1 26 -6z
m-152 -25 c3 -14 14 -34 24 -44 18 -19 18 -19 25 7 3 14 12 26 20 26 18 0 18
-16 0 -23 -8 -3 -14 -14 -14 -24 0 -10 -3 -26 -7 -35 -15 -37 15 -16 32 21
l18 40 17 -23 c15 -21 15 -22 -5 -22 -12 1 -22 -4 -22 -10 0 -15 -37 -64 -48
-64 -5 0 -7 7 -4 15 4 8 2 17 -2 19 -5 3 -6 16 -4 30 4 18 -1 27 -17 36 -20
11 -21 10 -15 -10 4 -13 0 -31 -10 -46 -18 -28 -13 -44 16 -44 10 0 19 -4 19
-10 0 -5 -6 -7 -14 -4 -9 3 -20 -3 -28 -15 -18 -29 -30 -26 -22 4 7 27 -4 33
-24 13 -9 -9 -12 -9 -12 -1 0 7 5 15 10 18 28 18 -1 25 -62 16 -20 -3 -5 -21
17 -21 14 0 25 -5 25 -11 0 -7 -9 -9 -22 -5 -13 3 -28 6 -35 6 -13 0 -14 39 0
57 4 6 14 10 20 7 14 -5 47 49 47 78 0 45 66 61 77 19z m143 -21 c0 -5 -2 -10
-4 -10 -3 0 -8 5 -11 10 -3 6 -1 10 4 10 6 0 11 -4 11 -10z m106 -16 c-4 -9
-9 -15 -11 -12 -3 3 -3 13 1 22 4 9 9 15 11 12 3 -3 3 -13 -1 -22z m-55 -27
c-7 -18 -15 -25 -26 -21 -13 5 -11 10 7 29 27 28 32 26 19 -8z m-34 -64 c-8
-7 -37 9 -31 19 3 5 12 4 20 -3 8 -6 13 -14 11 -16z m-43 -39 c9 -24 4 -24
-18 -3 -16 16 -17 19 -4 19 9 0 19 -7 22 -16z m-44 -19 c0 -8 -4 -15 -10 -15
-5 0 -10 7 -10 15 0 8 5 15 10 15 6 0 10 -7 10 -15z m150 -5 c0 -5 -4 -10 -10
-10 -5 0 -10 5 -10 10 0 6 5 10 10 10 6 0 10 -4 10 -10z m-193 -21 c-10 -16
-47 -28 -47 -15 0 18 14 31 35 32 21 2 22 0 12 -17z m39 -56 c-4 -4 -11 -1
-16 7 -16 25 -11 35 7 17 9 -9 13 -20 9 -24z m-168 -26 c-17 -23 -33 -44 -35
-46 -2 -2 -6 -2 -9 1 -8 9 58 98 68 92 5 -3 -6 -24 -24 -47z m130 17 c-3 -14
-5 -12 -10 9 -3 19 -2 25 4 19 6 -6 8 -18 6 -28z m82 12 c0 -3 -4 -8 -10 -11
-5 -3 -10 -1 -10 4 0 6 5 11 10 11 6 0 10 -2 10 -4z m-174 -25 c-4 -5 0 -12 6
-14 7 -3 3 -6 -9 -6 -12 -1 -23 -7 -26 -13 -2 -7 -7 -10 -10 -7 -8 7 21 49 34
49 6 0 8 -4 5 -9z m54 -27 c0 -8 -4 -12 -10 -9 -5 3 -10 10 -10 16 0 5 5 9 10
9 6 0 10 -7 10 -16z m-184 -19 c4 -8 12 -15 20 -15 8 0 14 -4 14 -10 0 -5 -6
-10 -12 -10 -9 0 -8 -4 2 -10 11 -7 12 -10 2 -10 -8 0 -16 9 -19 19 -3 11 -16
22 -29 25 -14 4 -22 11 -19 16 9 15 35 12 41 -5z m239 -3 c-3 -3 -11 0 -18 7
-9 10 -8 11 6 5 10 -3 15 -9 12 -12z m45 -3 c0 -6 -4 -7 -10 -4 -5 3 -10 11
-10 16 0 6 5 7 10 4 6 -3 10 -11 10 -16z m-166 -24 c-4 -8 -12 -15 -20 -15
-21 0 -17 -21 6 -27 22 -6 26 -18 9 -28 -6 -4 -17 1 -24 11 -12 15 -16 16 -24
5 -6 -10 -10 -10 -16 -1 -4 7 5 24 21 41 30 31 57 39 48 14z m126 -9 c0 -3 -4
-8 -10 -11 -5 -3 -10 -1 -10 4 0 6 5 11 10 11 6 0 10 -2 10 -4z m-95 -15 c3
-5 0 -13 -6 -17 -7 -4 -9 -3 -5 4 3 5 0 13 -6 15 -9 4 -10 6 -1 6 6 1 14 -3
18 -8z m-158 -67 c-3 -3 -12 -4 -19 -1 -8 3 -5 6 6 6 11 1 17 -2 13 -5z m103
-5 c12 -9 12 -10 -4 -5 -10 4 -25 1 -32 -5 -8 -6 -14 -7 -14 -2 0 24 25 30 50
12z m-25 -57 c-3 -3 -11 0 -18 7 -9 10 -8 11 6 5 10 -3 15 -9 12 -12z m-31
-34 c-8 -12 -44 -10 -44 3 0 6 7 9 15 5 8 -3 14 -2 14 2 -3 19 2 25 10 12 6
-8 7 -18 5 -22z m-45 -35 c2 -1 -6 -1 -18 0 -11 1 -21 8 -21 15 0 12 3 12 18
1 9 -7 19 -14 21 -16z m-100 -52 c16 -10 6 -31 -15 -31 -8 0 -14 8 -14 18 -1
16 -1 16 -11 -1 -6 -9 -14 -15 -20 -12 -15 10 -11 23 9 28 28 8 36 7 51 -2z
m-95 -86 c-4 -8 -10 -12 -15 -9 -14 8 -10 24 6 24 9 0 12 -6 9 -15z"/>
<path d="M7567 3303 c-11 -10 13 -33 34 -33 23 0 24 7 5 26 -16 15 -29 18 -39
7z"/>
<path d="M7606 3111 c-4 -7 -5 -15 -2 -18 9 -9 19 4 14 18 -4 11 -6 11 -12 0z"/>
<path d="M7560 3085 c0 -8 5 -15 11 -15 6 0 8 -7 5 -16 -5 -14 -4 -15 9 -4 20
16 19 23 -5 38 -17 10 -20 10 -20 -3z"/>
<path d="M7645 3070 c-18 -20 -16 -38 3 -26 8 5 24 46 18 46 -2 0 -11 -9 -21
-20z"/>
<path d="M7810 3029 c-17 -7 -21 -12 -12 -18 6 -4 19 -16 28 -27 15 -19 15
-18 9 3 -3 12 -1 24 5 28 12 7 14 25 3 24 -5 0 -19 -5 -33 -10z"/>
<path d="M7566 3015 c-4 -13 -2 -14 14 -5 23 13 26 20 6 20 -8 0 -16 -7 -20
-15z"/>
<path d="M7620 3009 c0 -5 5 -7 10 -4 6 3 10 8 10 11 0 2 -4 4 -10 4 -5 0 -10
-5 -10 -11z"/>
<path d="M7850 3004 c0 -14 3 -14 15 -4 8 7 15 14 15 16 0 2 -7 4 -15 4 -8 0
-15 -7 -15 -16z"/>
<path d="M7865 2970 c-16 -16 -26 -32 -22 -36 3 -4 9 1 13 10 4 11 13 15 25
11 11 -4 19 -2 19 4 0 5 3 16 6 25 9 24 -8 18 -41 -14z"/>
<path d="M7600 2979 c0 -5 5 -7 10 -4 6 3 10 8 10 11 0 2 -4 4 -10 4 -5 0 -10
-5 -10 -11z"/>
<path d="M7762 2978 c-17 -17 -15 -31 5 -24 9 4 20 1 25 -6 6 -10 8 -9 8 3 0
25 -24 41 -38 27z"/>
<path d="M7630 2965 c-14 -16 -10 -18 14 -9 9 3 16 10 16 15 0 14 -16 11 -30
-6z"/>
<path d="M7550 2959 c0 -5 5 -7 10 -4 6 3 10 8 10 11 0 2 -4 4 -10 4 -5 0 -10
-5 -10 -11z"/>
<path d="M7736 2925 c-18 -13 -17 -14 12 -12 18 1 31 6 29 11 -5 16 -21 16
-41 1z"/>
<path d="M7901 2933 c-1 -7 -8 -13 -16 -13 -8 0 -15 -7 -15 -16 0 -11 6 -14
22 -9 16 6 20 4 15 -9 -3 -8 -2 -18 3 -21 6 -4 10 2 9 12 -1 24 -17 71 -18 56z"/>
<path d="M7796 2908 c-15 -21 -15 -23 5 -30 26 -10 40 -1 19 12 -11 7 -11 11
-1 24 8 10 9 16 3 16 -6 0 -18 -10 -26 -22z"/>
<path d="M7611 2870 c-28 -24 -20 -26 14 -4 14 9 32 14 40 10 8 -3 15 -1 15 4
0 17 -44 10 -69 -10z"/>
<path d="M7850 2870 c0 -5 5 -10 10 -10 6 0 10 5 10 10 0 6 -4 10 -10 10 -5 0
-10 -4 -10 -10z"/>
<path d="M7762 2850 c-10 -16 -8 -19 11 -22 12 -2 22 -10 22 -18 0 -18 15 -31
28 -23 4 2 3 11 -3 18 -6 7 -7 21 -3 30 5 14 3 16 -7 10 -8 -5 -17 -2 -25 8
-10 14 -12 14 -23 -3z"/>
<path d="M7830 2830 c0 -5 7 -10 15 -10 8 0 15 5 15 10 0 6 -7 10 -15 10 -8 0
-15 -4 -15 -10z"/>
<path d="M7576 2821 c-4 -5 3 -7 14 -4 23 6 26 13 6 13 -8 0 -17 -4 -20 -9z"/>
<path d="M7650 2821 c0 -5 9 -11 20 -14 24 -6 27 8 4 17 -21 8 -24 8 -24 -3z"/>
<path d="M7745 2800 c-3 -5 -2 -10 4 -10 5 0 13 5 16 10 3 6 2 10 -4 10 -5 0
-13 -4 -16 -10z"/>
<path d="M7850 2784 c0 -10 6 -13 19 -9 12 4 21 0 25 -11 5 -13 9 -15 18 -6 9
9 7 15 -8 27 -25 19 -54 19 -54 -1z"/>
<path d="M7668 2779 c-10 -5 -18 -18 -18 -27 0 -10 -3 -22 -7 -28 -5 -5 0 0
10 11 10 11 27 28 39 38 22 19 5 24 -24 6z"/>
<path d="M7605 2769 c-11 -17 1 -21 15 -4 8 9 8 15 2 15 -6 0 -14 -5 -17 -11z"/>
<path d="M7770 2765 c0 -8 2 -15 4 -15 2 0 11 -3 20 -6 10 -4 16 -1 16 9 0 8
-7 18 -16 21 -22 9 -24 8 -24 -9z"/>
<path d="M7826 2726 c-4 -25 -11 -46 -17 -46 -5 0 -9 -6 -9 -13 0 -14 67 -16
89 -3 19 12 3 24 -24 19 -17 -4 -27 0 -31 11 -9 24 4 32 26 18 12 -7 20 -8 20
-2 0 5 -3 10 -8 10 -4 0 -15 12 -23 26 l-16 27 -7 -47z"/>
<path d="M7937 2764 c-8 -8 1 -24 14 -24 5 0 9 7 9 15 0 15 -12 20 -23 9z"/>
<path d="M7689 2743 c-13 -15 -12 -15 9 -4 23 12 28 21 13 21 -5 0 -15 -7 -22
-17z"/>
<path d="M7780 2699 c0 -5 5 -7 10 -4 6 3 10 8 10 11 0 2 -4 4 -10 4 -5 0 -10
-5 -10 -11z"/>
<path d="M7686 2685 c-16 -12 -17 -15 -4 -15 9 0 18 7 22 15 7 18 6 18 -18 0z"/>
<path d="M7580 2680 c-8 -5 -12 -11 -9 -14 2 -3 11 -1 19 4 8 5 12 11 9 14 -2
3 -11 1 -19 -4z"/>
<path d="M7619 2643 c-13 -16 -12 -17 4 -4 16 13 21 21 13 21 -2 0 -10 -8 -17
-17z"/>
<path d="M7665 2630 c-9 -14 14 -32 33 -25 6 2 12 0 12 -6 0 -5 -7 -12 -15
-15 -8 -4 -15 -10 -15 -15 0 -5 18 1 39 13 45 26 45 29 -1 34 -17 2 -35 9 -39
15 -5 8 -9 8 -14 -1z"/>
<path d="M7575 2620 c-3 -5 1 -10 10 -10 9 0 13 5 10 10 -3 6 -8 10 -10 10 -2
0 -7 -4 -10 -10z"/>
<path d="M7826 2615 c-3 -8 -15 -15 -26 -15 -13 0 -20 -7 -20 -20 0 -27 4 -26
47 15 25 23 32 35 21 35 -9 0 -18 -7 -22 -15z"/>
<path d="M7645 2580 c-3 -5 1 -10 9 -10 9 0 16 5 16 10 0 6 -4 10 -9 10 -6 0
-13 -4 -16 -10z"/>
<path d="M7560 2570 c0 -5 4 -10 9 -10 6 0 13 5 16 10 3 6 -1 10 -9 10 -9 0
-16 -4 -16 -10z"/>
<path d="M7817 2553 c-14 -13 -6 -23 17 -23 30 0 42 15 20 24 -20 8 -29 8 -37
-1z"/>
<path d="M7726 2528 c-9 -12 -13 -24 -9 -27 3 -3 8 0 10 7 3 6 11 12 19 12 16
0 19 16 5 25 -5 3 -17 -5 -25 -17z"/>
<path d="M7660 2520 c0 -5 5 -10 10 -10 6 0 10 5 10 10 0 6 -4 10 -10 10 -5 0
-10 -4 -10 -10z"/>
<path d="M7485 2510 c-3 -5 -1 -10 4 -10 6 0 11 5 11 10 0 6 -2 10 -4 10 -3 0
-8 -4 -11 -10z"/>
<path d="M7608 2513 c7 -3 16 -2 19 1 4 3 -2 6 -13 5 -11 0 -14 -3 -6 -6z"/>
<path d="M7795 2500 c-3 -5 1 -10 9 -10 9 0 16 5 16 10 0 6 -4 10 -9 10 -6 0
-13 -4 -16 -10z"/>
<path d="M7555 2480 c-3 -5 1 -10 9 -10 9 0 16 5 16 10 0 6 -4 10 -9 10 -6 0
-13 -4 -16 -10z"/>
<path d="M7663 2476 c-25 -12 -30 -26 -10 -26 7 0 18 9 25 20 7 11 11 19 10
19 -2 -1 -13 -6 -25 -13z"/>
<path d="M7757 2470 c-3 -11 -2 -20 3 -20 4 0 10 9 13 20 3 11 2 20 -3 20 -4
0 -10 -9 -13 -20z"/>
<path d="M7680 2440 c0 -5 5 -10 10 -10 6 0 10 5 10 10 0 6 -4 10 -10 10 -5 0
-10 -4 -10 -10z"/>
<path d="M7551 2431 c-7 -5 -12 -14 -9 -21 2 -7 10 -4 22 9 19 21 12 28 -13
12z"/>
<path d="M7645 2411 c-6 -11 9 -23 19 -14 9 9 7 23 -3 23 -6 0 -12 -4 -16 -9z"/>
<path d="M7671 2354 c-10 -12 -10 -19 -2 -27 8 -8 11 -7 11 6 0 9 5 17 10 17
6 0 10 5 10 10 0 14 -13 12 -29 -6z"/>
<path d="M7616 2351 c-4 -5 -2 -12 3 -15 5 -4 12 -2 15 3 4 5 2 12 -3 15 -5 4
-12 2 -15 -3z"/>
<path d="M7510 2343 c8 -3 18 -11 22 -17 5 -7 8 -4 8 7 0 11 -7 17 -22 16 -16
0 -18 -2 -8 -6z"/>
<path d="M7703 2314 c-7 -3 -9 -12 -6 -20 4 -11 9 -12 19 -3 25 20 17 35 -13
23z"/>
<path d="M7497 2295 c3 -8 9 -12 14 -9 12 7 11 11 -5 17 -10 4 -13 1 -9 -8z"/>
<path d="M7563 2282 c-23 -28 -30 -48 -13 -37 15 9 52 65 43 65 -4 0 -18 -13
-30 -28z"/>
<path d="M7460 2261 c0 -12 -4 -21 -10 -21 -5 0 -10 -4 -10 -10 0 -5 6 -7 14
-4 17 7 28 42 15 50 -5 3 -9 -4 -9 -15z"/>
<path d="M7590 2255 c0 -10 10 -15 34 -15 35 0 62 -21 51 -40 -4 -6 -13 -9
-21 -6 -9 3 -14 -2 -14 -14 0 -24 13 -25 38 -4 22 19 18 79 -4 70 -8 -3 -14 1
-14 9 0 18 -12 19 -27 4 -8 -8 -13 -8 -17 0 -10 16 -26 13 -26 -4z"/>
<path d="M7506 2205 c-9 -26 -7 -32 5 -12 6 10 9 21 6 23 -2 3 -7 -2 -11 -11z"/>
<path d="M7350 2200 c0 -5 5 -10 10 -10 6 0 10 5 10 10 0 6 -4 10 -10 10 -5 0
-10 -4 -10 -10z"/>
<path d="M7540 2195 c0 -8 4 -15 10 -15 5 0 7 7 4 15 -4 8 -8 15 -10 15 -2 0
-4 -7 -4 -15z"/>
<path d="M7576 2195 c-3 -9 0 -15 9 -15 8 0 15 7 15 15 0 8 -4 15 -9 15 -5 0
-11 -7 -15 -15z"/>
<path d="M7450 2185 c0 -8 5 -15 10 -15 6 0 10 7 10 15 0 8 -4 15 -10 15 -5 0
-10 -7 -10 -15z"/>
<path d="M7397 2163 c-12 -12 -7 -22 8 -17 8 4 15 10 15 15 0 11 -14 12 -23 2z"/>
<path d="M7600 2161 c0 -5 6 -12 13 -15 9 -3 7 -9 -6 -19 -20 -17 -8 -31 17
-21 20 8 20 28 0 48 -18 18 -24 20 -24 7z"/>
<path d="M7340 2150 c0 -5 5 -10 10 -10 6 0 10 5 10 10 0 6 -4 10 -10 10 -5 0
-10 -4 -10 -10z"/>
<path d="M7560 2140 c0 -5 5 -10 11 -10 5 0 7 5 4 10 -3 6 -8 10 -11 10 -2 0
-4 -4 -4 -10z"/>
<path d="M7490 2125 c-10 -12 -10 -15 4 -15 9 0 16 7 16 15 0 8 -2 15 -4 15
-2 0 -9 -7 -16 -15z"/>
<path d="M7415 2110 c-3 -5 -1 -10 4 -10 6 0 11 5 11 10 0 6 -2 10 -4 10 -3 0
-8 -4 -11 -10z"/>
<path d="M7510 2090 c0 -5 7 -10 15 -10 8 0 15 5 15 10 0 6 -7 10 -15 10 -8 0
-15 -4 -15 -10z"/>
<path d="M7465 2079 c-11 -17 1 -21 15 -4 8 9 8 15 2 15 -6 0 -14 -5 -17 -11z"/>
<path d="M7570 2070 c0 -5 4 -10 9 -10 6 0 13 5 16 10 3 6 -1 10 -9 10 -9 0
-16 -4 -16 -10z"/>
<path d="M7617 2073 c-10 -9 25 -32 40 -26 22 9 14 33 -10 33 -13 0 -27 -3
-30 -7z"/>
<path d="M7400 2061 c0 -6 5 -13 10 -16 6 -3 10 1 10 9 0 9 -4 16 -10 16 -5 0
-10 -4 -10 -9z"/>
<path d="M7250 2049 c0 -5 5 -7 10 -4 6 3 10 8 10 11 0 2 -4 4 -10 4 -5 0 -10
-5 -10 -11z"/>
<path d="M7305 2050 c3 -5 8 -10 11 -10 2 0 4 5 4 10 0 6 -5 10 -11 10 -5 0
-7 -4 -4 -10z"/>
<path d="M7490 2050 c0 -15 32 -20 50 -7 17 12 16 13 -16 14 -19 1 -34 -3 -34
-7z"/>
<path d="M7350 2029 c0 -5 5 -7 10 -4 6 3 10 8 10 11 0 2 -4 4 -10 4 -5 0 -10
-5 -10 -11z"/>
<path d="M7280 2010 c0 -5 5 -10 11 -10 5 0 7 5 4 10 -3 6 -8 10 -11 10 -2 0
-4 -4 -4 -10z"/>
<path d="M7384 1986 c-10 -8 -16 -18 -11 -22 4 -4 7 -2 7 4 0 7 11 12 25 12
14 0 25 5 25 10 0 14 -23 12 -46 -4z"/>
<path d="M7460 1951 c0 -11 3 -22 8 -24 4 -3 7 6 7 19 0 13 -3 24 -7 24 -5 0
-8 -9 -8 -19z"/>
<path d="M7391 1944 c0 -11 3 -14 6 -6 3 7 2 16 -1 19 -3 4 -6 -2 -5 -13z"/>
<path d="M7496 1941 c-4 -5 -2 -12 3 -15 5 -4 12 -2 15 3 4 5 2 12 -3 15 -5 4
-12 2 -15 -3z"/>
<path d="M7170 1919 c0 -5 5 -7 10 -4 6 3 10 8 10 11 0 2 -4 4 -10 4 -5 0 -10
-5 -10 -11z"/>
<path d="M7215 1900 c-3 -5 -1 -10 4 -10 6 0 11 5 11 10 0 6 -2 10 -4 10 -3 0
-8 -4 -11 -10z"/>
<path d="M7310 1900 c0 -5 5 -10 10 -10 6 0 10 5 10 10 0 6 -4 10 -10 10 -5 0
-10 -4 -10 -10z"/>
<path d="M7370 1903 c1 -18 28 -44 35 -33 5 8 11 8 22 -1 11 -9 16 -10 22 -1
7 12 51 12 51 0 0 -4 5 -8 10 -8 6 0 10 4 10 9 0 12 -58 32 -65 22 -6 -10 -53
-2 -61 10 -6 11 -24 12 -24 2z"/>
<path d="M7280 1830 c0 -5 7 -10 15 -10 8 0 15 5 15 10 0 6 -7 10 -15 10 -8 0
-15 -4 -15 -10z"/>
<path d="M7400 1814 c0 -8 5 -12 10 -9 6 3 10 10 10 16 0 5 -4 9 -10 9 -5 0
-10 -7 -10 -16z"/>
<path d="M7145 1810 c-3 -5 -1 -10 4 -10 6 0 11 5 11 10 0 6 -2 10 -4 10 -3 0
-8 -4 -11 -10z"/>
<path d="M7375 1789 c-10 -15 3 -25 16 -12 7 7 7 13 1 17 -6 3 -14 1 -17 -5z"/>
<path d="M7419 1782 c-1 -4 -1 -11 0 -16 1 -4 -4 -14 -10 -22 -9 -11 -8 -14 4
-14 8 0 18 6 21 13 5 9 7 9 12 -1 5 -10 9 -10 20 -1 11 9 18 8 29 -1 13 -11
14 -10 10 3 -4 8 -14 18 -23 21 -9 3 -27 10 -39 16 -13 5 -24 6 -24 2z"/>
<path d="M7280 1770 c0 -5 4 -10 9 -10 5 0 18 -3 28 -7 16 -6 16 -5 4 10 -15
19 -41 23 -41 7z"/>
<path d="M7000 1739 c0 -5 5 -7 10 -4 6 3 10 8 10 11 0 2 -4 4 -10 4 -5 0 -10
-5 -10 -11z"/>
<path d="M7228 1730 c-10 -11 -13 -22 -8 -25 6 -4 13 1 17 11 5 14 8 14 24 -7
10 -13 19 -18 19 -11 0 7 5 10 10 7 6 -3 10 1 10 10 0 11 -5 15 -15 11 -9 -3
-18 1 -21 9 -8 19 -15 18 -36 -5z"/>
<path d="M7335 1740 c-7 -12 2 -30 16 -30 12 0 12 27 0 35 -5 3 -12 1 -16 -5z"/>
<path d="M7585 1720 c3 -5 8 -10 11 -10 2 0 4 5 4 10 0 6 -5 10 -11 10 -5 0
-7 -4 -4 -10z"/>
<path d="M7160 1710 c0 -5 5 -10 11 -10 5 0 7 5 4 10 -3 6 -8 10 -11 10 -2 0
-4 -4 -4 -10z"/>
<path d="M7020 1670 c0 -5 5 -10 11 -10 5 0 7 5 4 10 -3 6 -8 10 -11 10 -2 0
-4 -4 -4 -10z"/>
<path d="M7090 1670 c8 -5 22 -9 30 -9 10 0 8 3 -5 9 -27 12 -43 12 -25 0z"/>
<path d="M7296 1648 c-20 -28 -21 -44 -2 -29 13 11 29 51 21 51 -2 0 -11 -10
-19 -22z"/>
<path d="M7106 1631 c-4 -5 1 -8 9 -7 21 3 31 16 12 16 -9 0 -18 -4 -21 -9z"/>
<path d="M7015 1580 c-3 -5 -2 -10 4 -10 5 0 13 5 16 10 3 6 2 10 -4 10 -5 0
-13 -4 -16 -10z"/>
<path d="M7094 1578 c-5 -7 -2 -9 9 -5 9 3 18 1 20 -6 2 -7 8 -8 13 -4 5 4 2
12 -6 17 -20 13 -27 12 -36 -2z"/>
<path d="M7220 1580 c0 -5 5 -10 10 -10 6 0 10 5 10 10 0 6 -4 10 -10 10 -5 0
-10 -4 -10 -10z"/>
<path d="M7258 1566 c-10 -11 -15 -22 -12 -25 3 -3 11 2 19 12 7 9 19 15 27
12 8 -3 20 1 27 9 19 23 -39 15 -61 -8z"/>
<path d="M7190 1565 c-8 -9 -8 -15 -2 -15 12 0 26 19 19 26 -2 2 -10 -2 -17
-11z"/>
<path d="M7040 1559 c0 -5 5 -7 10 -4 6 3 10 8 10 11 0 2 -4 4 -10 4 -5 0 -10
-5 -10 -11z"/>
<path d="M6890 1550 c0 -5 7 -10 15 -10 8 0 15 5 15 10 0 6 -7 10 -15 10 -8 0
-15 -4 -15 -10z"/>
<path d="M7085 1550 c-3 -5 -1 -10 4 -10 6 0 11 5 11 10 0 6 -2 10 -4 10 -3 0
-8 -4 -11 -10z"/>
<path d="M7310 1545 c-10 -12 -10 -15 4 -15 9 0 16 7 16 15 0 8 -2 15 -4 15
-2 0 -9 -7 -16 -15z"/>
<path d="M7356 1552 c-3 -6 -1 -14 5 -17 15 -10 25 3 12 16 -7 7 -13 7 -17 1z"/>
<path d="M7120 1520 c0 -5 5 -10 10 -10 6 0 10 5 10 10 0 6 -4 10 -10 10 -5 0
-10 -4 -10 -10z"/>
<path d="M7275 1520 c-3 -5 -12 -7 -20 -3 -8 3 -15 1 -15 -5 0 -16 33 -24 42
-10 8 14 10 28 4 28 -3 0 -7 -4 -11 -10z"/>
<path d="M7000 1510 c-13 -8 -13 -10 2 -10 9 0 20 5 23 10 8 13 -5 13 -25 0z"/>
<path d="M7330 1512 c0 -12 19 -26 26 -19 2 2 -2 10 -11 17 -9 8 -15 8 -15 2z"/>
<path d="M6860 1489 c0 -5 4 -8 9 -5 5 4 12 0 14 -6 3 -8 6 -6 6 5 1 9 -6 17
-14 17 -8 0 -15 -5 -15 -11z"/>
<path d="M7145 1470 c-3 -5 -2 -10 4 -10 5 0 13 5 16 10 3 6 2 10 -4 10 -5 0
-13 -4 -16 -10z"/>
<path d="M7240 1446 c0 -9 5 -16 10 -16 6 0 10 4 10 9 0 6 -4 13 -10 16 -5 3
-10 -1 -10 -9z"/>
<path d="M7030 1430 c0 -5 4 -10 9 -10 6 0 13 5 16 10 3 6 -1 10 -9 10 -9 0
-16 -4 -16 -10z"/>
<path d="M7070 1410 c-8 -5 -12 -11 -9 -14 3 -3 14 1 25 9 21 16 8 20 -16 5z"/>
<path d="M7190 1413 c0 -6 -12 -14 -27 -19 -22 -5 -24 -8 -10 -11 10 -3 24 0
32 7 10 8 17 6 28 -10 8 -12 17 -18 20 -13 2 4 -6 19 -19 33 -13 13 -24 20
-24 13z"/>
<path d="M6894 1385 c-10 -8 -14 -15 -8 -15 6 0 17 7 24 15 16 19 9 19 -16 0z"/>
<path d="M6935 1381 c-6 -11 9 -23 19 -14 9 9 7 23 -3 23 -6 0 -12 -4 -16 -9z"/>
<path d="M7038 1373 c7 -3 16 -2 19 1 4 3 -2 6 -13 5 -11 0 -14 -3 -6 -6z"/>
<path d="M7167 1363 c-4 -3 -7 -11 -7 -17 0 -6 5 -5 12 2 6 6 9 14 7 17 -3 3
-9 2 -12 -2z"/>
<path d="M6830 1349 c0 -5 5 -7 10 -4 6 3 10 8 10 11 0 2 -4 4 -10 4 -5 0 -10
-5 -10 -11z"/>
<path d="M7120 1353 c0 -5 12 -21 26 -36 20 -23 27 -27 39 -17 8 6 19 9 24 6
16 -10 23 13 9 28 -11 12 -16 12 -31 -2 -18 -16 -20 -15 -37 6 -18 22 -30 28
-30 15z"/>
<path d="M7060 1340 c0 -6 7 -10 15 -10 8 0 15 2 15 4 0 2 -7 6 -15 10 -8 3
-15 1 -15 -4z"/>
<path d="M6950 1330 c-12 -8 -11 -10 8 -10 12 0 22 5 22 10 0 13 -11 13 -30 0z"/>
<path d="M7277 1315 c-10 -14 -14 -25 -8 -25 15 0 42 31 36 41 -8 12 -7 12
-28 -16z"/>
<path d="M6890 1320 c-8 -5 -12 -11 -9 -14 3 -3 14 1 25 9 21 16 8 20 -16 5z"/>
<path d="M7015 1319 c-10 -14 -1 -21 19 -13 9 3 13 10 10 15 -7 12 -21 11 -29
-2z"/>
<path d="M7118 1303 c7 -3 16 -2 19 1 4 3 -2 6 -13 5 -11 0 -14 -3 -6 -6z"/>
<path d="M7055 1290 c4 -6 11 -8 16 -5 14 9 11 15 -7 15 -8 0 -12 -5 -9 -10z"/>
<path d="M6930 1270 c-11 -11 -20 -26 -19 -32 0 -7 7 -3 16 10 8 12 22 22 29
22 8 0 14 5 14 10 0 16 -18 12 -40 -10z"/>
<path d="M7219 1274 c-6 -8 -9 -17 -5 -21 3 -3 6 -1 6 6 0 8 7 10 20 6 23 -7
28 10 6 18 -8 3 -20 -1 -27 -9z"/>
<path d="M7130 1270 c0 -5 9 -10 20 -10 23 0 26 -10 8 -28 -9 -9 -9 -12 0 -12
19 0 26 28 12 45 -14 17 -40 20 -40 5z"/>
<path d="M6855 1220 c-10 -11 -13 -20 -8 -20 13 0 38 29 31 35 -3 3 -13 -4
-23 -15z"/>
<path d="M7047 1226 c-7 -17 9 -25 36 -18 18 4 24 22 8 22 -5 0 -16 3 -24 6
-8 3 -17 -2 -20 -10z"/>
<path d="M6920 1185 c-9 -10 -9 -15 -1 -15 6 0 11 5 11 11 0 6 7 9 15 6 8 -4
17 -2 20 3 10 16 -32 11 -45 -5z"/>
<path d="M6610 1179 c0 -5 5 -7 10 -4 6 3 10 8 10 11 0 2 -4 4 -10 4 -5 0 -10
-5 -10 -11z"/>
<path d="M6748 1183 c7 -3 16 -2 19 1 4 3 -2 6 -13 5 -11 0 -14 -3 -6 -6z"/>
<path d="M6835 1169 c-9 -14 -2 -20 14 -10 8 6 9 11 3 15 -6 3 -14 1 -17 -5z"/>
<path d="M6970 1159 c0 -5 5 -7 10 -4 6 3 10 8 10 11 0 2 -4 4 -10 4 -5 0 -10
-5 -10 -11z"/>
<path d="M6856 1124 c-4 -11 -2 -15 8 -11 8 3 17 1 20 -6 3 -8 5 -8 5 -1 1 6
-5 17 -13 23 -11 9 -15 8 -20 -5z"/>
<path d="M7088 1133 c6 -2 18 -2 25 0 6 3 1 5 -13 5 -14 0 -19 -2 -12 -5z"/>
<path d="M6910 1110 c0 -5 5 -10 10 -10 6 0 10 5 10 10 0 6 -4 10 -10 10 -5 0
-10 -4 -10 -10z"/>
<path d="M6835 1090 c-3 -5 -1 -10 4 -10 6 0 11 5 11 10 0 6 -2 10 -4 10 -3 0
-8 -4 -11 -10z"/>
<path d="M6720 1059 c0 -5 5 -7 10 -4 6 3 10 8 10 11 0 2 -4 4 -10 4 -5 0 -10
-5 -10 -11z"/>
<path d="M6862 1049 c2 -7 10 -15 17 -17 8 -3 12 1 9 9 -2 7 -10 15 -17 17 -8
3 -12 -1 -9 -9z"/>
<path d="M6905 1040 c-3 -5 -2 -10 4 -10 5 0 13 5 16 10 3 6 2 10 -4 10 -5 0
-13 -4 -16 -10z"/>
<path d="M6945 1030 c3 -5 8 -10 11 -10 2 0 4 5 4 10 0 6 -5 10 -11 10 -5 0
-7 -4 -4 -10z"/>
<path d="M6755 1009 c-11 -16 -1 -19 13 -3 7 8 8 14 3 14 -5 0 -13 -5 -16 -11z"/>
<path d="M6695 1000 c-3 -5 -1 -10 4 -10 6 0 11 5 11 10 0 6 -2 10 -4 10 -3 0
-8 -4 -11 -10z"/>
<path d="M6660 990 c0 -5 5 -10 11 -10 5 0 7 5 4 10 -3 6 -8 10 -11 10 -2 0
-4 -4 -4 -10z"/>
<path d="M6570 921 c0 -11 29 -35 35 -29 2 2 -4 12 -15 21 -11 9 -20 13 -20 8z"/>
<path d="M6690 900 c0 -5 5 -10 10 -10 6 0 10 5 10 10 0 6 -4 10 -10 10 -5 0
-10 -4 -10 -10z"/>
<path d="M6621 874 c0 -11 3 -14 6 -6 3 7 2 16 -1 19 -3 4 -6 -2 -5 -13z"/>
<path d="M7960 2455 c0 -8 5 -15 10 -15 6 0 10 7 10 15 0 8 -4 15 -10 15 -5 0
-10 -7 -10 -15z"/>
<path d="M7646 1925 c-9 -9 -16 -27 -16 -41 0 -14 -6 -24 -14 -24 -13 0 -31
-29 -23 -37 2 -2 20 4 40 12 37 15 50 35 23 35 -12 0 -12 5 1 31 18 35 12 47
-11 24z"/>
</g>
</svg>
